<?xml version="1.0" standalone="no"?>
<!DOCTYPE svg PUBLIC "-//W3C//DTD SVG 20010904//EN"
 "http://www.w3.org/TR/2001/REC-SVG-20010904/DTD/svg10.dtd">
<svg version="1.0" xmlns="http://www.w3.org/2000/svg"
 width="669.000000pt" height="285.000000pt" viewBox="0 0 669.000000 285.000000"
 preserveAspectRatio="xMidYMid meet">

<g transform="translate(0.000000,285.000000) scale(0.100000,-0.100000)"
fill="#000000" stroke="none">
<path d="M4646 2644 c-299 -54 -576 -226 -761 -473 -57 -75 -137 -218 -164
-293 l-11 -28 88 0 87 0 53 -153 c29 -83 66 -188 82 -232 16 -44 41 -115 56
-158 15 -43 29 -76 31 -73 2 2 35 95 73 206 53 153 67 207 59 217 -6 7 -15 10
-20 7 -5 -3 -9 3 -10 13 0 14 -2 14 -9 -4 -13 -31 -40 -30 -40 1 0 13 6 26 14
29 8 3 19 15 25 25 9 17 8 19 -9 15 -15 -4 -20 0 -20 14 0 10 -5 24 -12 31 -6
6 -8 15 -4 19 4 4 10 2 15 -5 5 -9 12 -9 27 3 17 13 17 14 2 15 -26 0 -23 44
5 63 18 13 19 16 5 16 -19 1 -26 41 -9 41 6 0 22 11 37 25 34 31 46 24 15 -9
-13 -14 -21 -31 -18 -38 4 -10 6 -9 6 2 1 8 12 24 26 35 14 11 35 28 47 38 15
12 25 14 32 7 15 -15 43 -12 50 5 6 17 36 21 36 5 0 -5 12 -10 26 -10 14 0 23
4 19 10 -3 6 3 10 14 10 12 0 20 -5 19 -12 -2 -7 4 -13 12 -14 8 0 21 -2 28
-2 9 -1 11 -9 7 -22 -6 -18 3 -25 27 -21 4 0 5 -6 2 -13 -4 -10 3 -16 23 -18
36 -4 40 -41 6 -46 -17 -3 -23 2 -23 17 0 11 -5 23 -11 26 -14 9 -27 -4 -13
-13 6 -4 16 -22 23 -39 8 -20 20 -33 31 -33 12 0 17 -6 15 -17 -2 -10 -4 -21
-4 -25 -1 -5 -12 -8 -26 -8 -14 0 -26 -4 -26 -10 -5 -29 -3 -35 11 -36 8 -1
21 -2 28 -3 23 -2 9 -46 -15 -49 -19 -3 -23 1 -23 22 0 35 -16 33 -29 -4 -9
-28 -7 -34 11 -31 4 0 5 -6 2 -14 -7 -18 -21 -19 -27 -2 -2 6 -4 -3 -5 -22 0
-19 -10 -43 -21 -55 -24 -26 -28 -56 -6 -56 8 0 15 -6 15 -14 0 -15 -27 -29
-40 -21 -4 3 -13 -7 -18 -23 -54 -143 -136 -369 -199 -544 -28 -78 -51 -128
-60 -130 -9 -2 -58 -2 -110 0 -91 3 -94 4 -105 30 -5 15 -59 164 -119 331 -60
168 -111 306 -113 308 -2 2 -23 -51 -46 -117 -31 -89 -46 -118 -54 -110 -7 7
-11 77 -11 208 0 201 1 208 51 380 6 20 3 22 -34 22 -47 0 -27 44 -168 -362
-49 -141 -91 -255 -95 -253 -3 2 -54 141 -114 310 l-108 305 -130 0 c-99 0
-128 -3 -125 -12 3 -7 88 -244 189 -525 l184 -513 107 0 106 0 30 83 c16 45
49 137 73 204 42 116 59 147 59 104 0 -34 60 -204 101 -287 131 -266 385 -495
659 -595 168 -61 238 -73 430 -73 183 -1 230 6 375 51 355 111 651 397 778
748 93 261 95 557 6 813 -149 423 -508 731 -943 807 -110 19 -322 18 -430 -1z
m-166 -528 c0 -16 -18 -31 -27 -22 -8 8 5 36 17 36 5 0 10 -6 10 -14z m85 4
c-3 -5 -13 -10 -21 -10 -8 0 -14 5 -14 10 0 6 9 10 21 10 11 0 17 -4 14 -10z
m-167 -22 c-6 -18 -28 -21 -28 -4 0 9 7 16 16 16 9 0 14 -5 12 -12z m-70 -10
c-3 -7 -12 -14 -21 -16 -12 -2 -15 1 -11 12 7 19 38 22 32 4z m-68 -12 c0 -2
-7 -9 -15 -16 -12 -10 -15 -10 -15 4 0 9 7 16 15 16 8 0 15 -2 15 -4z m300
-21 c0 -16 -27 -32 -37 -22 -3 4 -3 13 0 22 8 20 37 20 37 0z m88 3 c-7 -19
-38 -22 -38 -4 0 10 9 16 21 16 12 0 19 -5 17 -12z m-170 -15 c-2 -10 -13 -19
-26 -21 -17 -3 -22 2 -22 17 0 16 6 21 26 21 19 0 25 -5 22 -17z m-78 -8 c0
-19 -36 -39 -45 -25 -11 18 3 40 25 40 11 0 20 -7 20 -15z m-93 -32 c-12 -12
-20 -14 -28 -6 -7 7 -5 15 7 27 12 12 20 14 27 7 8 -8 6 -16 -6 -28z m-67 3
c0 -16 -18 -31 -27 -22 -8 8 5 36 17 36 5 0 10 -6 10 -14z m-70 -21 c0 -8 -4
-15 -10 -15 -5 0 -10 7 -10 15 0 8 5 15 10 15 6 0 10 -7 10 -15z m473 9 c11
-11 -5 -34 -24 -34 -18 0 -26 20 -12 33 8 9 28 9 36 1z m74 -9 c0 -8 -4 -15
-9 -15 -4 0 -8 7 -8 15 0 8 4 15 8 15 5 0 9 -7 9 -15z m-557 -69 c0 -16 -18
-31 -27 -22 -8 8 5 36 17 36 5 0 10 -6 10 -14z m570 -16 c0 -13 -7 -20 -20
-20 -19 0 -27 20 -13 33 13 14 33 6 33 -13z m-636 -5 c-4 -8 -10 -15 -15 -15
-4 0 -6 7 -3 15 4 8 10 15 15 15 4 0 6 -7 3 -15z m86 -15 c0 -5 -4 -10 -10
-10 -5 0 -10 5 -10 10 0 6 5 10 10 10 6 0 10 -4 10 -10z m-32 -47 c-5 -25 -28
-28 -28 -4 0 12 6 21 16 21 9 0 14 -7 12 -17z m1690 -110 l3 -123 -464 0
c-384 0 -466 -2 -483 -14 -14 -11 -19 -26 -19 -66 0 -83 -16 -80 409 -80 369
0 371 0 422 -24 61 -28 115 -82 146 -145 27 -55 37 -200 18 -265 -26 -91 -106
-177 -190 -204 -35 -11 -213 -14 -753 -13 l-258 1 3 123 3 122 465 2 c460 3
465 3 483 24 9 12 17 36 17 54 0 18 -8 42 -17 54 -18 20 -27 21 -398 23 -423
4 -416 3 -496 75 -77 69 -122 182 -112 276 5 43 4 45 -16 40 -18 -4 -21 -1
-21 22 0 24 3 27 25 23 19 -4 26 0 34 23 28 80 116 165 192 187 21 6 224 10
519 9 l485 -2 3 -122z m-1762 90 c-10 -10 -19 5 -10 18 6 11 8 11 12 0 2 -7 1
-15 -2 -18z m651 1 c7 -20 -17 -37 -34 -23 -15 13 -6 39 13 39 8 0 17 -7 21
-16z m-589 -61 c-5 -25 -28 -28 -28 -4 0 12 6 21 16 21 9 0 14 -7 12 -17z
m-71 -15 c-3 -8 -6 -5 -6 6 -1 11 2 17 5 13 3 -3 4 -12 1 -19z m63 -62 c0 -16
-18 -31 -27 -22 -8 8 5 36 17 36 5 0 10 -6 10 -14z m96 -45 c0 -15 -3 -17 -13
-9 -7 6 -13 14 -13 19 0 5 6 9 13 9 7 0 13 -9 13 -19z m-38 -43 c-4 -27 -28
-36 -28 -10 0 20 8 32 22 32 5 0 8 -10 6 -22z m-68 2 c0 -5 -4 -10 -10 -10 -5
0 -10 5 -10 10 0 6 5 10 10 10 6 0 10 -4 10 -10z"/>
<path d="M3130 2238 c-33 -17 -47 -31 -54 -55 -19 -68 25 -113 124 -128 55 -8
90 -29 90 -54 0 -56 -118 -75 -163 -27 -21 23 -38 23 -66 0 -10 -9 35 -57 64
-70 78 -32 199 0 218 59 24 75 -20 131 -113 142 -84 11 -120 44 -85 79 21 21
93 21 124 0 18 -13 28 -14 48 -5 l26 12 -23 24 c-45 48 -123 57 -190 23z"/>
<path d="M3463 2250 c-69 -22 -96 -107 -49 -154 14 -15 45 -28 82 -36 86 -17
93 -19 105 -41 14 -28 -10 -64 -49 -72 -39 -8 -100 9 -114 33 -9 15 -16 16
-35 7 -29 -13 -29 -28 0 -55 67 -63 216 -52 252 19 40 77 -4 139 -110 154 -81
12 -118 48 -83 83 17 17 99 15 126 -3 17 -12 26 -13 42 -5 68 36 -79 97 -167
70z"/>
<path d="M530 2075 l0 -175 125 0 125 0 0 30 0 30 -95 0 -95 0 0 40 0 39 93 3
92 3 3 28 3 27 -95 0 -96 0 0 45 0 45 95 0 95 0 0 30 0 30 -125 0 -125 0 0
-175z"/>
<path d="M820 2244 c0 -4 29 -53 65 -109 63 -99 65 -103 65 -168 l0 -67 30 0
30 0 0 73 0 74 65 94 c36 52 65 97 65 102 0 4 -15 7 -34 7 -32 0 -38 -5 -77
-70 -24 -39 -47 -69 -51 -68 -5 2 -27 32 -51 68 -36 55 -47 65 -75 68 -17 2
-32 0 -32 -4z"/>
<path d="M1170 2075 l0 -176 128 3 127 3 0 25 c0 25 -1 25 -97 28 l-98 3 0 39
0 39 93 3 92 3 3 28 3 27 -95 0 -96 0 0 45 0 45 101 0 100 0 -3 28 -3 27 -127
3 -128 3 0 -176z"/>
<path d="M1454 2233 c4 -10 32 -88 64 -173 56 -152 58 -155 87 -155 28 0 31 4
65 102 19 57 38 103 41 103 4 0 10 -12 14 -27 3 -15 20 -63 37 -105 27 -71 32
-78 57 -78 27 0 30 6 85 163 31 89 58 167 59 172 1 6 -12 11 -29 13 l-32 3
-37 -118 c-20 -65 -40 -121 -44 -125 -4 -5 -26 48 -50 117 -58 167 -65 167
-121 -1 -23 -69 -46 -122 -50 -117 -5 4 -21 49 -36 98 -39 129 -48 145 -85
145 -24 0 -29 -3 -25 -17z"/>
<path d="M2000 2075 l0 -175 30 0 30 0 0 175 0 175 -30 0 -30 0 0 -175z"/>
<path d="M2110 2220 c0 -30 1 -30 55 -30 l55 0 0 -145 0 -145 30 0 30 0 0 145
0 145 55 0 c54 0 55 0 55 30 l0 30 -140 0 -140 0 0 -30z"/>
<path d="M2430 2075 l0 -175 30 0 29 0 3 118 3 117 90 -117 c68 -90 95 -118
113 -118 l22 0 -2 173 -3 172 -30 0 -30 0 -5 -105 -5 -105 -84 108 c-64 81
-90 107 -108 107 l-23 0 0 -175z"/>
<path d="M2770 2075 l0 -175 125 0 125 0 0 30 0 30 -95 0 -95 0 0 40 0 39 93
3 92 3 3 28 3 27 -95 0 -96 0 0 45 0 45 95 0 95 0 0 30 0 30 -125 0 -125 0 0
-175z"/>
<path d="M4510 1940 c0 -5 12 -10 26 -10 14 0 23 4 19 10 -3 6 -15 10 -26 10
-10 0 -19 -4 -19 -10z"/>
<path d="M4268 1903 c7 -3 16 -2 19 1 4 3 -2 6 -13 5 -11 0 -14 -3 -6 -6z"/>
<path d="M4508 1853 c6 -2 18 -2 25 0 6 3 1 5 -13 5 -14 0 -19 -2 -12 -5z"/>
<path d="M520 1315 l0 -525 120 0 120 0 2 356 3 356 115 -128 c64 -71 207
-231 318 -356 l203 -228 125 0 124 0 0 525 0 525 -125 0 -125 0 -2 -349 -3
-349 -65 72 c-36 40 -177 197 -314 349 l-248 277 -124 0 -124 0 0 -525z"/>
<path d="M1730 1315 l0 -525 565 0 565 0 0 120 0 120 -442 2 -443 3 0 80 0 80
413 3 412 2 0 120 0 120 -412 2 -413 3 0 75 0 75 443 3 442 2 0 120 0 120
-565 0 -565 0 0 -525z"/>
<path d="M4258 1823 c7 -3 16 -2 19 1 4 3 -2 6 -13 5 -11 0 -14 -3 -6 -6z"/>
</g>
</svg>
