<?xml version="1.0" standalone="no"?>
<!DOCTYPE svg PUBLIC "-//W3C//DTD SVG 20010904//EN"
 "http://www.w3.org/TR/2001/REC-SVG-20010904/DTD/svg10.dtd">
<svg version="1.0" xmlns="http://www.w3.org/2000/svg"
 width="384.000000pt" height="151.000000pt" viewBox="0 0 384.000000 151.000000"
 preserveAspectRatio="xMidYMid meet">

<g transform="translate(0.000000,151.000000) scale(0.100000,-0.100000)"
fill="#000000" stroke="none">
<path d="M2593 1115 c-37 -16 -51 -62 -34 -107 18 -49 135 -63 176 -22 16 16
21 90 7 111 -20 32 -97 41 -149 18z"/>
<path d="M2370 981 l0 -120 -42 24 c-50 29 -147 34 -201 11 -73 -30 -117 -124
-117 -246 0 -146 58 -238 163 -260 85 -17 160 2 219 57 l26 25 21 -41 c18 -34
26 -41 51 -41 l30 0 0 355 0 355 -75 0 -75 0 0 -119z m-29 -220 c27 -28 29
-34 29 -111 0 -77 -2 -83 -29 -111 -40 -40 -110 -42 -145 -4 -51 55 -40 216
17 243 44 21 96 14 128 -17z"/>
<path d="M668 1015 c-2 -39 1 -55 10 -55 8 0 12 18 12 55 0 71 -17 71 -22 0z"/>
<path d="M815 1015 c0 -38 4 -55 13 -55 8 0 10 8 6 25 -6 23 -3 25 26 25 29 0
32 -3 28 -25 -4 -17 -1 -25 8 -25 10 0 14 15 14 55 0 40 -4 55 -14 55 -9 0
-12 -8 -8 -25 4 -22 1 -25 -28 -25 -29 0 -32 2 -26 25 4 17 2 25 -6 25 -9 0
-13 -17 -13 -55z"/>
<path d="M1015 1015 c0 -48 3 -55 20 -55 14 0 16 3 8 11 -15 15 -5 39 16 40
11 0 10 3 -6 9 -15 6 -20 15 -16 29 3 14 1 21 -8 21 -10 0 -14 -15 -14 -55z"/>
<path d="M1232 1015 c-2 -30 1 -55 5 -55 5 0 7 18 5 40 -2 22 0 40 6 40 5 0
22 -19 38 -42 24 -34 30 -38 32 -22 3 19 -57 94 -75 94 -4 0 -9 -25 -11 -55z"/>
<path d="M1310 1045 c0 -14 2 -25 4 -25 2 0 6 11 8 25 3 14 1 25 -3 25 -5 0
-9 -11 -9 -25z"/>
<path d="M1447 1050 c-3 -11 -1 -18 4 -14 5 3 10 0 10 -5 1 -6 3 -14 4 -18 2
-5 6 -18 10 -30 4 -13 13 -23 20 -23 9 0 7 15 -8 55 -21 58 -31 67 -40 35z"/>
<path d="M1607 1063 c-14 -13 -6 -43 13 -53 27 -14 26 -40 -2 -40 -12 0 -19
-3 -15 -6 3 -4 18 -4 32 0 33 8 33 39 -1 61 -20 13 -23 19 -13 31 11 14 -1 21
-14 7z"/>
<path d="M1763 1063 c-20 -7 -15 -27 12 -53 20 -19 23 -26 12 -38 -10 -13 -9
-14 3 -10 24 8 24 44 -1 61 -13 10 -19 22 -16 31 4 9 5 16 4 15 -1 0 -8 -3
-14 -6z"/>
<path d="M1937 1056 c-4 -9 -3 -16 2 -16 8 0 25 -56 22 -72 0 -5 6 -8 15 -8
11 0 14 5 9 18 -4 9 -12 31 -17 47 -14 40 -24 50 -31 31z"/>
<path d="M2078 1021 c3 -33 9 -52 19 -56 9 -3 18 -3 21 0 3 3 0 5 -6 5 -8 0
-12 19 -12 50 0 33 -4 50 -12 50 -9 0 -12 -15 -10 -49z"/>
<path d="M2150 1021 c0 -30 -5 -51 -12 -54 -10 -4 -10 -6 -1 -6 6 -1 15 4 18
9 10 16 13 100 3 100 -4 0 -8 -22 -8 -49z"/>
<path d="M235 1040 c-158 -24 -229 -127 -228 -330 1 -164 47 -257 148 -301
104 -44 216 -32 289 32 l45 40 20 -46 c18 -41 23 -45 55 -45 l36 0 0 185 0
185 -155 0 -155 0 0 -60 0 -60 75 0 c85 0 91 -8 55 -68 -51 -83 -190 -79 -234
7 -23 43 -30 148 -16 216 15 74 49 111 111 120 67 10 120 -11 142 -57 l19 -38
80 0 80 0 -7 38 c-21 116 -97 171 -260 186 -27 2 -73 1 -100 -4z"/>
<path d="M1910 1000 c-7 -17 -10 -33 -8 -36 3 -2 11 9 18 26 7 17 10 33 8 36
-3 2 -11 -9 -18 -26z"/>
<path d="M1422 991 c-6 -17 -7 -31 -3 -31 8 0 22 52 16 58 -1 2 -7 -11 -13
-27z"/>
<path d="M1285 897 c-73 -29 -105 -71 -105 -136 l0 -31 75 0 c66 0 75 2 75 18
0 49 90 74 142 40 23 -15 46 -64 34 -75 -2 -3 -54 -11 -115 -18 -179 -22 -231
-58 -231 -157 0 -58 30 -105 83 -128 100 -44 211 -34 277 26 l37 34 18 -40
c16 -35 22 -40 52 -40 l33 0 0 173 c-1 237 -13 278 -96 321 -31 17 -60 21
-144 23 -64 2 -117 -2 -135 -10z m225 -297 c0 -24 -30 -79 -51 -94 -50 -35
-139 -10 -139 39 0 30 26 45 94 55 76 11 96 11 96 0z"/>
<path d="M1885 891 c-16 -10 -39 -28 -49 -40 -26 -28 -30 -27 -45 14 -11 31
-16 35 -47 35 l-34 0 0 -255 0 -255 75 0 75 0 0 155 c0 201 15 235 104 235
l36 0 0 65 0 65 -42 0 c-24 0 -56 -8 -73 -19z"/>
<path d="M2905 898 c-60 -21 -105 -83 -105 -143 0 -25 1 -25 75 -25 66 0 75 2
75 18 0 50 106 77 149 38 20 -18 36 -64 27 -74 -3 -3 -56 -11 -116 -18 -174
-20 -230 -58 -230 -156 0 -93 75 -151 200 -152 85 -1 113 7 159 49 l38 35 18
-40 c16 -35 22 -40 52 -40 l33 0 0 173 c-1 237 -13 280 -96 322 -30 16 -62 20
-144 22 -58 1 -118 -3 -135 -9z m225 -298 c0 -24 -30 -79 -51 -94 -50 -35
-139 -10 -139 39 0 30 26 45 94 55 76 11 96 11 96 0z"/>
<path d="M3530 894 c-19 -8 -45 -24 -57 -36 l-21 -20 -16 31 c-14 26 -23 31
-51 31 l-35 0 0 -255 0 -255 75 0 75 0 0 171 0 171 29 29 c36 36 86 39 125 8
l26 -20 0 -180 0 -179 81 0 81 0 -4 193 c-3 175 -6 196 -26 239 -31 63 -82 88
-178 88 -39 -1 -84 -7 -104 -16z"/>
<path d="M642 698 c3 -191 4 -205 26 -239 32 -53 81 -73 172 -73 73 1 147 25
165 54 10 17 20 12 38 -20 15 -24 25 -30 53 -30 l34 0 0 255 0 255 -80 0 -80
0 0 -169 c0 -155 -2 -170 -21 -195 -17 -21 -29 -26 -67 -26 -86 0 -92 15 -92
224 l0 166 -76 0 -75 0 3 -202z"/>
<path d="M2580 645 l0 -255 75 0 75 0 0 255 0 255 -75 0 -75 0 0 -255z"/>
</g>
</svg>
