<svg data-v-423bf9ae="" xmlns="http://www.w3.org/2000/svg" viewBox="0 0 690.3163793562196 60" class="font"><!----><!----><defs data-v-423bf9ae=""><linearGradient data-v-423bf9ae="" gradientTransform="rotate(25)" id="36ef8b1f-05f4-42ae-b16e-4aec9d4e67fa" x1="0%" y1="0%" x2="100%" y2="0%"><stop data-v-423bf9ae="" offset="0%" style="stop-color: rgb(23, 119, 117); stop-opacity: 1;"></stop><stop data-v-423bf9ae="" offset="100%" style="stop-color: rgb(40, 210, 191); stop-opacity: 1;"></stop></linearGradient></defs><g data-v-423bf9ae="" id="db66bd5d-08e7-4d67-8464-a1ccf3478248" fill="url(#36ef8b1f-05f4-42ae-b16e-4aec9d4e67fa)" transform="matrix(5.272407679843658,0,0,5.272407679843658,-4.112486088633773,3.6906856110617845)"><path d="M0.78 10.50L0.78-0.42L4.37-0.42L4.37-0.42Q5.08-0.42 5.65-0.30L5.65-0.30L5.65-0.30Q6.22-0.18 6.75 0.13L6.75 0.13L6.75 0.13Q7.29 0.43 7.59 1.06L7.59 1.06L7.59 1.06Q7.88 1.68 7.88 2.60L7.88 2.60L7.88 2.88L7.88 2.88Q7.88 4.24 6.82 4.86L6.82 4.86L6.82 4.86Q8.16 5.50 8.16 7.08L8.16 7.08L8.16 7.36L8.16 7.36Q8.16 8.32 7.85 8.97L7.85 8.97L7.85 8.97Q7.53 9.62 6.96 9.93L6.96 9.93L6.96 9.93Q6.40 10.25 5.81 10.37L5.81 10.37L5.81 10.37Q5.22 10.50 4.48 10.50L4.48 10.50L0.78 10.50ZM4.55 5.91L4.55 5.91L3.05 5.91L3.05 8.54L4.55 8.54L4.55 8.54Q5.11 8.54 5.49 8.25L5.49 8.25L5.49 8.25Q5.87 7.97 5.87 7.28L5.87 7.28L5.87 7.15L5.87 7.15Q5.87 5.91 4.55 5.91ZM4.35 1.54L4.35 1.54L3.05 1.54L3.05 3.93L4.35 3.93L4.35 3.93Q5.59 3.93 5.59 2.83L5.59 2.83L5.59 2.65L5.59 2.65Q5.59 1.54 4.35 1.54ZM15.97 10.50L13.99 10.50L13.85 9.73L13.85 9.73Q12.96 10.68 11.52 10.68L11.52 10.68L11.52 10.68Q10.35 10.68 9.80 10.06L9.80 10.06L9.80 10.06Q9.25 9.44 9.25 8.46L9.25 8.46L9.25 8.32L9.25 8.32Q9.25 7.20 9.93 6.66L9.93 6.66L9.93 6.66Q10.61 6.13 11.91 5.94L11.91 5.94L13.62 5.67L13.62 5.67Q13.61 5.10 13.38 4.84L13.38 4.84L13.38 4.84Q13.16 4.58 12.61 4.58L12.61 4.58L12.61 4.58Q11.62 4.58 11.62 5.53L11.62 5.53L9.53 5.53L9.53 5.40L9.53 5.40Q9.53 4.30 10.26 3.60L10.26 3.60L10.26 3.60Q10.99 2.90 12.68 2.90L12.68 2.90L12.68 2.90Q14.42 2.90 15.13 3.60L15.13 3.60L15.13 3.60Q15.83 4.30 15.83 5.73L15.83 5.73L15.83 8.40L15.97 10.50ZM12.33 8.89L12.33 8.89L12.33 8.89Q13.09 8.89 13.62 8.33L13.62 8.33L13.62 6.97L12.36 7.17L12.36 7.17Q11.45 7.32 11.45 8.05L11.45 8.05L11.45 8.13L11.45 8.13Q11.45 8.46 11.67 8.67L11.67 8.67L11.67 8.67Q11.89 8.89 12.33 8.89ZM17.28-0.70L19.49-0.70L19.49 3.79L19.49 3.79Q20.29 2.90 21.67 2.90L21.67 2.90L21.67 2.90Q22.85 2.90 23.41 3.63L23.41 3.63L23.41 3.63Q23.97 4.35 23.97 5.47L23.97 5.47L23.97 10.50L21.77 10.50L21.77 5.84L21.77 5.84Q21.77 4.80 20.79 4.80L20.79 4.80L20.79 4.80Q19.94 4.80 19.49 5.50L19.49 5.50L19.49 10.50L17.28 10.50L17.28-0.70ZM31.78 10.50L29.79 10.50L29.65 9.73L29.65 9.73Q28.77 10.68 27.33 10.68L27.33 10.68L27.33 10.68Q26.15 10.68 25.61 10.06L25.61 10.06L25.61 10.06Q25.06 9.44 25.06 8.46L25.06 8.46L25.06 8.32L25.06 8.32Q25.06 7.20 25.74 6.66L25.74 6.66L25.74 6.66Q26.42 6.13 27.72 5.94L27.72 5.94L29.43 5.67L29.43 5.67Q29.41 5.10 29.19 4.84L29.19 4.84L29.19 4.84Q28.97 4.58 28.42 4.58L28.42 4.58L28.42 4.58Q27.43 4.58 27.43 5.53L27.43 5.53L25.34 5.53L25.34 5.40L25.34 5.40Q25.34 4.30 26.07 3.60L26.07 3.60L26.07 3.60Q26.80 2.90 28.49 2.90L28.49 2.90L28.49 2.90Q30.23 2.90 30.93 3.60L30.93 3.60L30.93 3.60Q31.64 4.30 31.64 5.73L31.64 5.73L31.64 8.40L31.78 10.50ZM28.14 8.89L28.14 8.89L28.14 8.89Q28.90 8.89 29.43 8.33L29.43 8.33L29.43 6.97L28.17 7.17L28.17 7.17Q27.26 7.32 27.26 8.05L27.26 8.05L27.26 8.13L27.26 8.13Q27.26 8.46 27.48 8.67L27.48 8.67L27.48 8.67Q27.69 8.89 28.14 8.89ZM43.74 5.39L43.74 10.50L41.54 10.50L41.54 5.74L41.54 5.74Q41.54 4.80 40.66 4.80L40.66 4.80L40.66 4.80Q39.94 4.80 39.51 5.45L39.51 5.45L39.51 10.50L37.31 10.50L37.31 5.74L37.31 5.74Q37.31 4.80 36.43 4.80L36.43 4.80L36.43 4.80Q35.70 4.80 35.29 5.45L35.29 5.45L35.29 10.50L33.08 10.50L33.08 5.18L32.96 3.08L34.93 3.08L35.08 3.98L35.08 3.98Q35.85 2.90 37.31 2.90L37.31 2.90L37.31 2.90Q38.72 2.90 39.26 4.05L39.26 4.05L39.26 4.05Q40.04 2.90 41.54 2.90L41.54 2.90L41.54 2.90Q42.64 2.90 43.19 3.58L43.19 3.58L43.19 3.58Q43.74 4.27 43.74 5.39L43.74 5.39ZM51.55 10.50L49.56 10.50L49.42 9.73L49.42 9.73Q48.54 10.68 47.10 10.68L47.10 10.68L47.10 10.68Q45.92 10.68 45.37 10.06L45.37 10.06L45.37 10.06Q44.83 9.44 44.83 8.46L44.83 8.46L44.83 8.32L44.83 8.32Q44.83 7.20 45.51 6.66L45.51 6.66L45.51 6.66Q46.19 6.13 47.49 5.94L47.49 5.94L49.20 5.67L49.20 5.67Q49.18 5.10 48.96 4.84L48.96 4.84L48.96 4.84Q48.73 4.58 48.19 4.58L48.19 4.58L48.19 4.58Q47.19 4.58 47.19 5.53L47.19 5.53L45.11 5.53L45.11 5.40L45.11 5.40Q45.11 4.30 45.84 3.60L45.84 3.60L45.84 3.60Q46.56 2.90 48.26 2.90L48.26 2.90L48.26 2.90Q49.99 2.90 50.70 3.60L50.70 3.60L50.70 3.60Q51.41 4.30 51.41 5.73L51.41 5.73L51.41 8.40L51.55 10.50ZM47.91 8.89L47.91 8.89L47.91 8.89Q48.66 8.89 49.20 8.33L49.20 8.33L49.20 6.97L47.94 7.17L47.94 7.17Q47.03 7.32 47.03 8.05L47.03 8.05L47.03 8.13L47.03 8.13Q47.03 8.46 47.24 8.67L47.24 8.67L47.24 8.67Q47.46 8.89 47.91 8.89ZM55.79 9.00L55.79 9.00L55.79 9.00Q56.78 9.00 56.78 8.27L56.78 8.27L56.78 8.27Q56.78 7.92 56.55 7.76L56.55 7.76L56.55 7.76Q56.31 7.59 55.68 7.53L55.68 7.53L55.68 7.53Q54.07 7.41 53.37 6.94L53.37 6.94L53.37 6.94Q52.67 6.47 52.67 5.45L52.67 5.45L52.67 5.32L52.67 5.32Q52.67 4.10 53.52 3.50L53.52 3.50L53.52 3.50Q54.38 2.90 55.79 2.90L55.79 2.90L55.79 2.90Q58.91 2.90 58.91 5.45L58.91 5.45L58.91 5.52L56.74 5.52L56.74 5.52Q56.74 4.58 55.79 4.58L55.79 4.58L55.79 4.58Q55.34 4.58 55.10 4.76L55.10 4.76L55.10 4.76Q54.85 4.94 54.85 5.25L54.85 5.25L54.85 5.25Q54.85 5.60 55.08 5.75L55.08 5.75L55.08 5.75Q55.30 5.91 55.92 5.96L55.92 5.96L55.92 5.96Q57.48 6.09 58.25 6.53L58.25 6.53L58.25 6.53Q59.01 6.97 59.01 8.06L59.01 8.06L59.01 8.19L59.01 8.19Q59.01 9.37 58.19 10.02L58.19 10.02L58.19 10.02Q57.37 10.68 55.79 10.68L55.79 10.68L55.79 10.68Q54.21 10.68 53.40 10.01L53.40 10.01L53.40 10.01Q52.58 9.34 52.58 8.22L52.58 8.22L52.58 8.15L54.78 8.15L54.78 8.15Q54.78 9.00 55.79 9.00ZM66.11-0.42L68.26-0.42L68.26 10.50L65.87 10.50L62.34 3.72L62.41 5.92L62.41 10.50L60.27 10.50L60.27-0.42L62.66-0.42L66.18 6.36L66.11 4.16L66.11-0.42ZM76.41 6.59L76.41 7.59L71.68 7.59L71.68 7.59Q71.74 8.34 72.09 8.67L72.09 8.67L72.09 8.67Q72.44 9.00 73.08 9.00L73.08 9.00L73.08 9.00Q73.64 9.00 73.98 8.74L73.98 8.74L73.98 8.74Q74.33 8.47 74.33 8.12L74.33 8.12L76.41 8.12L76.41 8.18L76.41 8.18Q76.41 9.27 75.52 9.97L75.52 9.97L75.52 9.97Q74.63 10.68 73.07 10.68L73.07 10.68L73.07 10.68Q71.29 10.68 70.38 9.67L70.38 9.67L70.38 9.67Q69.47 8.67 69.47 6.99L69.47 6.99L69.47 6.59L69.47 6.59Q69.47 4.93 70.38 3.91L70.38 3.91L70.38 3.91Q71.29 2.90 72.98 2.90L72.98 2.90L72.98 2.90Q74.68 2.90 75.54 3.91L75.54 3.91L75.54 3.91Q76.41 4.91 76.41 6.59L76.41 6.59ZM74.19 5.99L74.19 5.99Q74.09 4.58 72.94 4.58L72.94 4.58L72.94 4.58Q71.79 4.58 71.69 5.99L71.69 5.99L74.19 5.99ZM83.23 10.50L82.19 5.39L81.16 10.50L78.37 10.50L77.10 3.08L79.27 3.08L79.83 8.11L80.86 3.08L83.51 3.08L84.56 8.11L85.12 3.08L87.29 3.08L86.00 10.50L83.23 10.50ZM91.25 9.00L91.25 9.00L91.25 9.00Q92.25 9.00 92.25 8.27L92.25 8.27L92.25 8.27Q92.25 7.92 92.01 7.76L92.01 7.76L92.01 7.76Q91.77 7.59 91.14 7.53L91.14 7.53L91.14 7.53Q89.53 7.41 88.83 6.94L88.83 6.94L88.83 6.94Q88.13 6.47 88.13 5.45L88.13 5.45L88.13 5.32L88.13 5.32Q88.13 4.10 88.98 3.50L88.98 3.50L88.98 3.50Q89.84 2.90 91.25 2.90L91.25 2.90L91.25 2.90Q94.37 2.90 94.37 5.45L94.37 5.45L94.37 5.52L92.20 5.52L92.20 5.52Q92.20 4.58 91.25 4.58L91.25 4.58L91.25 4.58Q90.80 4.58 90.56 4.76L90.56 4.76L90.56 4.76Q90.31 4.94 90.31 5.25L90.31 5.25L90.31 5.25Q90.31 5.60 90.54 5.75L90.54 5.75L90.54 5.75Q90.76 5.91 91.38 5.96L91.38 5.96L91.38 5.96Q92.95 6.09 93.71 6.53L93.71 6.53L93.71 6.53Q94.47 6.97 94.47 8.06L94.47 8.06L94.47 8.19L94.47 8.19Q94.47 9.37 93.65 10.02L93.65 10.02L93.65 10.02Q92.83 10.68 91.25 10.68L91.25 10.68L91.25 10.68Q89.67 10.68 88.86 10.01L88.86 10.01L88.86 10.01Q88.05 9.34 88.05 8.22L88.05 8.22L88.05 8.15L90.24 8.15L90.24 8.15Q90.24 9.00 91.25 9.00ZM98.64 9.00L98.64 9.00L98.64 9.00Q99.64 9.00 99.64 8.27L99.64 8.27L99.64 8.27Q99.64 7.92 99.40 7.76L99.40 7.76L99.40 7.76Q99.16 7.59 98.53 7.53L98.53 7.53L98.53 7.53Q96.92 7.41 96.22 6.94L96.22 6.94L96.22 6.94Q95.52 6.47 95.52 5.45L95.52 5.45L95.52 5.32L95.52 5.32Q95.52 4.10 96.38 3.50L96.38 3.50L96.38 3.50Q97.23 2.90 98.64 2.90L98.64 2.90L98.64 2.90Q101.77 2.90 101.77 5.45L101.77 5.45L101.77 5.52L99.60 5.52L99.60 5.52Q99.60 4.58 98.64 4.58L98.64 4.58L98.64 4.58Q98.20 4.58 97.95 4.76L97.95 4.76L97.95 4.76Q97.71 4.94 97.71 5.25L97.71 5.25L97.71 5.25Q97.71 5.60 97.93 5.75L97.93 5.75L97.93 5.75Q98.15 5.91 98.77 5.96L98.77 5.96L98.77 5.96Q100.34 6.09 101.10 6.53L101.10 6.53L101.10 6.53Q101.86 6.97 101.86 8.06L101.86 8.06L101.86 8.19L101.86 8.19Q101.86 9.37 101.05 10.02L101.05 10.02L101.05 10.02Q100.23 10.68 98.64 10.68L98.64 10.68L98.64 10.68Q97.06 10.68 96.25 10.01L96.25 10.01L96.25 10.01Q95.44 9.34 95.44 8.22L95.44 8.22L95.44 8.15L97.64 8.15L97.64 8.15Q97.64 9.00 98.64 9.00ZM105.95 0.98L105.95 3.08L107.86 3.08L107.86 5.01L105.95 5.01L105.95 7.69L105.95 7.69Q105.95 8.33 106.22 8.55L106.22 8.55L106.22 8.55Q106.48 8.78 107.04 8.78L107.04 8.78L107.04 8.78Q107.52 8.78 107.72 8.68L107.72 8.68L107.72 10.50L107.72 10.50Q107.39 10.68 106.53 10.68L106.53 10.68L106.53 10.68Q103.74 10.68 103.74 7.92L103.74 7.92L103.74 5.01L102.61 5.01L102.61 3.08L103.74 3.08L103.74 0.98L105.95 0.98ZM115.51 10.50L113.53 10.50L113.39 9.73L113.39 9.73Q112.50 10.68 111.06 10.68L111.06 10.68L111.06 10.68Q109.89 10.68 109.34 10.06L109.34 10.06L109.34 10.06Q108.79 9.44 108.79 8.46L108.79 8.46L108.79 8.32L108.79 8.32Q108.79 7.20 109.47 6.66L109.47 6.66L109.47 6.66Q110.15 6.13 111.45 5.94L111.45 5.94L113.16 5.67L113.16 5.67Q113.15 5.10 112.92 4.84L112.92 4.84L112.92 4.84Q112.70 4.58 112.15 4.58L112.15 4.58L112.15 4.58Q111.16 4.58 111.16 5.53L111.16 5.53L109.07 5.53L109.07 5.40L109.07 5.40Q109.07 4.30 109.80 3.60L109.80 3.60L109.80 3.60Q110.53 2.90 112.22 2.90L112.22 2.90L112.22 2.90Q113.96 2.90 114.67 3.60L114.67 3.60L114.67 3.60Q115.37 4.30 115.37 5.73L115.37 5.73L115.37 8.40L115.51 10.50ZM111.87 8.89L111.87 8.89L111.87 8.89Q112.63 8.89 113.16 8.33L113.16 8.33L113.16 6.97L111.90 7.17L111.90 7.17Q110.99 7.32 110.99 8.05L110.99 8.05L110.99 8.13L110.99 8.13Q110.99 8.46 111.21 8.67L111.21 8.67L111.21 8.67Q111.43 8.89 111.87 8.89ZM123.51 5.47L123.51 10.50L121.31 10.50L121.31 5.84L121.31 5.84Q121.31 4.80 120.33 4.80L120.33 4.80L120.33 4.80Q119.48 4.80 119.03 5.50L119.03 5.50L119.03 10.50L116.82 10.50L116.82 5.18L116.69 3.08L118.66 3.08L118.83 4.03L118.83 4.03Q119.63 2.90 121.21 2.90L121.21 2.90L121.21 2.90Q122.39 2.90 122.95 3.63L122.95 3.63L122.95 3.63Q123.51 4.35 123.51 5.47L123.51 5.47ZM127.47 2.90L127.47 2.90L127.47 2.90Q128.67 2.90 129.37 3.71L129.37 3.71L129.37-0.70L131.59-0.70L131.59 8.40L131.71 10.50L129.72 10.50L129.57 9.62L129.57 9.62Q128.84 10.68 127.47 10.68L127.47 10.68L127.47 10.68Q124.71 10.68 124.71 7.04L124.71 7.04L124.71 6.54L124.71 6.54Q124.71 2.90 127.47 2.90ZM129.37 8.08L129.37 5.50L129.37 5.50Q128.90 4.80 128.11 4.80L128.11 4.80L128.11 4.80Q126.91 4.80 126.91 6.54L126.91 6.54L126.91 7.04L126.91 7.04Q126.91 8.78 128.11 8.78L128.11 8.78L128.11 8.78Q128.90 8.78 129.37 8.08L129.37 8.08Z"></path></g><!----><!----></svg>