<?xml version="1.0" standalone="no"?>
<!DOCTYPE svg PUBLIC "-//W3C//DTD SVG 20010904//EN"
 "http://www.w3.org/TR/2001/REC-SVG-20010904/DTD/svg10.dtd">
<svg version="1.0" xmlns="http://www.w3.org/2000/svg"
 width="520.000000pt" height="97.000000pt" viewBox="0 0 520.000000 97.000000"
 preserveAspectRatio="xMidYMid meet">

<g transform="translate(0.000000,97.000000) scale(0.100000,-0.100000)"
fill="#000000" stroke="none">
<path d="M2961 886 c-50 -53 -18 -148 51 -154 47 -4 78 33 78 93 0 77 -79 114
-129 61z"/>
<path d="M0 780 c0 -99 3 -120 15 -120 8 0 19 17 26 43 20 77 39 105 83 127
23 11 55 20 70 20 l27 0 -3 -335 c-2 -236 -6 -337 -15 -346 -6 -6 -26 -14 -45
-18 -19 -4 -34 -14 -36 -24 -3 -16 12 -17 178 -17 166 0 181 1 178 17 -2 10
-17 20 -38 24 -60 13 -60 10 -60 371 l0 328 23 0 c40 -1 106 -38 127 -72 10
-18 22 -52 26 -75 5 -33 11 -43 25 -43 18 0 19 9 19 115 0 63 -1 115 -2 116
-2 0 -137 3 -300 5 l-298 4 0 -120z"/>
<path d="M1897 894 c-4 -4 -7 -58 -7 -121 0 -92 3 -113 15 -113 8 0 19 17 26
43 20 77 39 105 83 127 23 11 55 20 70 20 l28 0 -4 -335 c-2 -235 -6 -337 -15
-346 -6 -6 -26 -14 -45 -18 -19 -4 -34 -14 -36 -24 -3 -16 12 -17 178 -17 166
0 181 1 178 17 -2 10 -17 20 -36 24 -19 4 -39 12 -45 18 -9 9 -13 110 -15 348
l-3 336 42 -7 c75 -12 119 -59 137 -143 5 -24 14 -39 25 -41 16 -3 17 7 15
115 l-3 118 -290 3 c-160 2 -294 0 -298 -4z"/>
<path d="M3173 882 c-3 -7 6 -22 21 -33 l26 -20 0 -365 c0 -251 3 -364 11
-364 6 0 26 12 45 26 l34 27 41 -29 c71 -49 172 -34 236 34 122 131 98 420
-40 482 -57 26 -97 25 -141 -5 -20 -14 -39 -25 -41 -25 -3 0 -5 63 -5 139 l0
140 -91 3 c-67 2 -93 0 -96 -10z m307 -324 c53 -88 49 -335 -8 -400 -21 -24
-65 -23 -88 3 -17 19 -19 38 -19 198 0 152 2 181 18 204 26 40 71 37 97 -5z"/>
<path d="M640 877 c0 -7 10 -17 23 -22 l22 -10 3 -337 2 -337 -25 -17 c-14 -9
-25 -23 -25 -30 0 -11 24 -14 120 -14 113 0 120 1 120 20 0 11 -7 20 -15 20
-27 0 -35 48 -35 210 l0 158 35 31 c41 36 55 38 78 13 15 -16 17 -46 17 -211
0 -184 -1 -193 -20 -198 -11 -3 -20 -14 -20 -24 0 -18 9 -19 115 -19 91 0 115
3 115 14 0 7 -10 20 -22 28 -22 15 -23 22 -28 219 -5 222 -9 236 -63 269 -53
33 -128 20 -171 -29 -11 -11 -23 -21 -28 -21 -4 0 -8 68 -8 150 l0 150 -95 0
c-70 0 -95 -3 -95 -13z"/>
<path d="M1321 638 c-47 -23 -94 -85 -111 -148 -14 -52 -12 -180 4 -234 58
-192 252 -219 357 -50 33 54 11 62 -40 14 -50 -48 -85 -52 -130 -15 -32 27
-45 61 -56 138 l-6 47 113 1 c62 1 119 1 126 0 16 -2 15 16 -4 100 -32 142
-138 204 -253 147z m106 -26 c20 -12 33 -60 33 -118 l0 -54 -60 0 -60 0 0 49
c0 93 42 152 87 123z"/>
<path d="M2734 641 c-17 -10 -40 -32 -52 -47 l-21 -29 -1 37 c0 45 -15 51
-100 44 -30 -2 -63 -5 -72 -5 -25 -1 -22 -24 5 -36 22 -10 22 -13 25 -222 l2
-212 -25 -17 c-14 -9 -25 -23 -25 -30 0 -11 27 -14 135 -14 105 0 135 3 135
13 0 7 -14 20 -32 28 -43 19 -51 54 -46 215 3 103 7 136 21 157 16 25 57 38
57 19 0 -20 43 -52 70 -52 37 0 60 32 60 83 0 74 -69 109 -136 68z"/>
<path d="M4535 644 c-16 -8 -40 -24 -52 -36 l-21 -20 -4 28 c-3 28 -4 29 -77
32 -84 4 -121 -3 -121 -21 0 -7 10 -17 23 -22 22 -10 22 -13 25 -228 l2 -217
-25 -10 c-14 -5 -25 -16 -25 -25 0 -13 19 -15 120 -15 127 0 142 7 100 43 -19
16 -20 29 -20 195 0 172 1 179 23 199 35 33 61 36 83 12 17 -19 19 -38 19
-206 0 -181 -1 -186 -22 -200 -13 -9 -23 -22 -23 -29 0 -11 25 -14 120 -14
103 0 120 2 120 16 0 9 -9 18 -20 21 -27 7 -29 21 -32 228 -3 200 -9 223 -67
262 -40 27 -84 29 -126 7z"/>
<path d="M4944 641 c-47 -21 -96 -84 -113 -146 -14 -51 -14 -188 0 -239 32
-117 129 -183 231 -156 68 18 160 125 132 153 -4 3 -21 -9 -38 -28 -84 -88
-173 -36 -192 113 l-7 52 123 0 123 0 -5 63 c-13 161 -127 246 -254 188z m111
-41 c12 -13 19 -42 23 -90 l5 -71 -64 3 c-54 3 -64 6 -63 21 1 9 2 34 3 55 1
46 34 102 59 102 11 0 27 -9 37 -20z"/>
<path d="M2896 643 c-13 -14 -4 -31 19 -37 l25 -6 0 -220 0 -220 -25 -10 c-14
-5 -25 -16 -25 -25 0 -13 19 -15 120 -15 113 0 120 1 120 20 0 11 -7 20 -15
20 -8 0 -16 1 -17 3 -1 1 -5 112 -8 247 l-5 245 -92 2 c-50 1 -94 -1 -97 -4z"/>
<path d="M3717 643 c-12 -12 -7 -33 8 -33 29 0 35 -39 35 -219 0 -103 5 -192
11 -208 35 -93 146 -116 227 -48 17 14 32 25 34 25 3 0 2 -14 0 -31 -5 -31 -4
-32 24 -24 16 4 60 13 98 19 74 13 94 30 53 45 -13 5 -27 20 -30 33 -4 13 -7
119 -7 236 l0 212 -100 0 c-93 0 -100 -1 -100 -20 0 -13 7 -20 18 -20 38 0 42
-18 42 -206 l0 -182 -31 -26 c-35 -30 -47 -32 -75 -12 -18 13 -19 30 -22 240
l-3 226 -88 0 c-48 0 -91 -3 -94 -7z"/>
</g>
</svg>
